<?xml version="1.0" encoding="UTF-8"?>
<svg width="129px" height="48px" viewBox="0 0 129 48" version="1.1" xmlns="http://www.w3.org/2000/svg" xmlns:xlink="http://www.w3.org/1999/xlink">
    <title>maketplace_btn_buy备份 5</title>
    <defs>
        <path d="M21.84,0 L102.96,0 C115.021899,-2.21573489e-15 124.8,9.77810106 124.8,21.84 C124.8,33.9018989 115.021899,43.68 102.96,43.68 L21.84,43.68 C9.77810106,43.68 1.47715659e-15,33.9018989 0,21.84 C-1.47715659e-15,9.77810106 9.77810106,2.21573489e-15 21.84,0 Z" id="path-1"></path>
    </defs>
    <g id="maketplace" stroke="none" stroke-width="1" fill="none" fill-rule="evenodd">
        <g id="mint备份" transform="translate(-1288.000000, -849.000000)">
            <g id="编组" transform="translate(1287.000000, 848.000000)">
                <g id="编组-4" transform="translate(3.120000, 3.120000)">
                    <g id="矩形">
                        <mask id="mask-2" fill="white">
                            <use xlink:href="#path-1"></use>
                        </mask>
                        <path stroke="#1F2024" stroke-width="1.56" d="M102.96,-0.78 C109.206341,-0.78 114.861341,1.75182974 118.954755,5.84524461 C123.04817,9.93865948 125.58,15.5936595 125.58,21.84 C125.58,28.0863405 123.04817,33.7413405 118.954755,37.8347554 C114.861341,41.9281703 109.206341,44.46 102.96,44.46 L102.96,44.46 L21.84,44.46 C15.5936595,44.46 9.93865948,41.9281703 5.84524461,37.8347554 C1.75182974,33.7413405 -0.78,28.0863405 -0.78,21.84 C-0.78,15.5936595 1.75182974,9.93865948 5.84524461,5.84524461 C9.93865948,1.75182974 15.5936595,-0.78 21.84,-0.78 L21.84,-0.78 Z"></path>
                        <path d="M21.06,0 L103.74,0 C115.371117,8.19390547e-15 124.8,9.42888317 124.8,21.06 C124.8,32.6911168 115.371117,42.12 103.74,42.12 L21.06,42.12 C9.42888317,42.12 1.424401e-15,32.6911168 0,21.06 C-1.424401e-15,9.42888317 9.42888317,2.1366015e-15 21.06,0 Z" fill="#3E9C9E" mask="url(#mask-2)"></path>
                    </g>
                    <path d="M21.06,4.68 L103.74,4.68 C112.786424,4.68 120.12,12.0135758 120.12,21.06 C120.12,30.1064242 112.786424,37.44 103.74,37.44 L21.06,37.44 C12.0135758,37.44 4.68,30.1064242 4.68,21.06 C4.68,12.0135758 12.0135758,4.68 21.06,4.68 Z" id="矩形" fill="#212121"></path>
                </g>
            </g>
        </g>
    </g>
</svg>